HIERARCHY
ROOT Hips
{
	OFFSET -0.001795 -0.223333 0.028219
	CHANNELS 6 Xposition Yposition Zposition Zrotation Yrotation Xrotation 
	JOINT LeftUpLeg
	{
		OFFSET 0.069520 -0.091406 -0.006815
		CHANNELS 3 Zrotation Yrotation Xrotation
		JOINT LeftLeg
		{
			OFFSET 0.034277 -0.375199 -0.004496
			CHANNELS 3 Zrotation Yrotation Xrotation
			JOINT LeftFoot
			{
				OFFSET -0.013596 -0.397961 -0.043693
				CHANNELS 3 Zrotation Yrotation Xrotation
				JOINT LeftToe
				{
					OFFSET 0.026358 -0.055791 0.119288
					CHANNELS 3 Zrotation Yrotation Xrotation
					End Site
					{
						OFFSET 0.000000 0.000000 0.000000
					}
				}
			}
		}
	}
	JOINT RightUpLeg
	{
		OFFSET -0.067670 -0.090522 -0.004320
		CHANNELS 3 Zrotation Yrotation Xrotation
		JOINT RightLeg
		{
			OFFSET -0.038290 -0.382569 -0.008850
			CHANNELS 3 Zrotation Yrotation Xrotation
			JOINT RightFoot
			{
				OFFSET 0.015774 -0.398415 -0.042312
				CHANNELS 3 Zrotation Yrotation Xrotation
				JOINT RightToe
				{
					OFFSET -0.025372 -0.048144 0.123348
					CHANNELS 3 Zrotation Yrotation Xrotation
					End Site
					{
						OFFSET 0.000000 0.000000 0.000000
					}
				}
			}
		}
	}
	JOINT Spine
	{
		OFFSET -0.002533 0.108963 -0.026696
		CHANNELS 3 Zrotation Yrotation Xrotation
		JOINT Spine1
		{
			OFFSET 0.005487 0.135180 0.001092
			CHANNELS 3 Zrotation Yrotation Xrotation
			JOINT Spine2
			{
				OFFSET 0.001457 0.052922 0.025425
				CHANNELS 3 Zrotation Yrotation Xrotation
				JOINT Neck
				{
					OFFSET -0.002778 0.213870 -0.042857
					CHANNELS 3 Zrotation Yrotation Xrotation
					JOINT Head
					{
						OFFSET 0.005152 0.064970 0.051349
						CHANNELS 3 Zrotation Yrotation Xrotation
						End Site
						{
							OFFSET 0.000000 0.000000 0.000000
						}
					}
				}
				JOINT LeftShoulder
				{
					OFFSET 0.078845 0.121749 -0.034090
					CHANNELS 3 Zrotation Yrotation Xrotation
					JOINT LeftArm
					{
						OFFSET 0.090977 0.030469 -0.008868
						CHANNELS 3 Zrotation Yrotation Xrotation
						JOINT LeftForeArm
						{
							OFFSET 0.259612 -0.012772 -0.027456
							CHANNELS 3 Zrotation Yrotation Xrotation
							JOINT LeftHand
							{
								OFFSET 0.249234 0.008986 -0.001171
								CHANNELS 3 Zrotation Yrotation Xrotation
								End Site
								{
									OFFSET 0.000000 0.000000 0.000000
								}
							}
						}
					}
				}
				JOINT RightShoulder
				{
					OFFSET -0.081759 0.118833 -0.038615
					CHANNELS 3 Zrotation Yrotation Xrotation
					JOINT RightArm
					{
						OFFSET -0.096012 0.032551 -0.009143
						CHANNELS 3 Zrotation Yrotation Xrotation
						JOINT RightForeArm
						{
							OFFSET -0.253742 -0.013329 -0.021401
							CHANNELS 3 Zrotation Yrotation Xrotation
							JOINT RightHand
							{
								OFFSET -0.255298 0.007772 -0.005559
								CHANNELS 3 Zrotation Yrotation Xrotation
								End Site
								{
									OFFSET 0.000000 0.000000 0.000000
								}
							}
						}
					}
				}
			}
		}
	}
}
MOTION
Frames: 10
Frame Time: 0.050000
0.000000 0.875017 0.000000 -1.144021 2.771255 4.706843 21.926964 1.792259 -25.928345 -7.283699 1.300402 21.063893 9.173708 19.609225 18.191093 0.000000 0.000000 0.000000 -16.815195 -0.926265 -24.804922 6.152524 -1.358873 26.523494 -12.134946 -26.483600 13.874730 0.000000 0.000000 0.000000 -1.740443 -0.845241 26.096662 6.168423 -0.589183 -26.737089 -0.496351 -0.089157 24.133163 2.285706 0.541888 -26.808756 0.000000 0.000000 0.000000 -15.540174 1.866610 -2.095572 -8.850601 -9.618117 -1.267699 10.900468 -11.228603 -0.681662 0.000000 0.000000 0.000000 -0.543577 1.235886 0.446072 11.274224 5.042431 -1.429239 -6.604457 0.833469 0.134703 0.000000 0.000000 0.000000 
0.000034 0.855851 -0.006745 -1.696443 2.488659 5.178789 24.346058 2.644247 -28.950809 -9.927970 2.308406 24.915262 9.984072 20.666846 15.081967 0.000000 0.000000 0.000000 -17.126938 -1.161178 -28.219931 7.240915 -1.916815 30.813618 -12.303509 -27.353289 10.514811 0.000000 0.000000 0.000000 -1.498116 -1.077158 30.167217 6.268031 -0.628727 -26.414693 -0.024146 0.348346 22.973386 0.334974 1.873738 -30.410908 0.000000 0.000000 0.000000 -19.717361 1.064605 -2.214644 -11.069022 -14.281454 -1.268291 12.923353 -12.554548 -0.960334 0.000000 0.000000 0.000000 1.918132 4.500464 1.649877 13.643281 6.533823 -1.548994 -8.887322 3.314245 0.052039 0.000000 0.000000 0.000000 
0.002584 0.838115 -0.014014 -1.434188 2.537226 4.945390 24.777663 3.099866 -31.909385 -11.101161 2.992032 29.594727 10.417161 21.322427 12.213155 0.000000 0.000000 0.000000 -19.239636 -1.928902 -31.147470 9.497274 -3.170683 35.642941 -12.311291 -27.728562 8.404153 0.000000 0.000000 0.000000 -1.727931 -1.178232 33.805892 6.744093 -0.809375 -25.446146 -0.462632 1.803992 22.988498 2.239570 1.440542 -34.865688 0.000000 0.000000 0.000000 -21.913540 -2.209173 -1.013119 -16.615479 -18.490156 -0.981719 13.566177 -15.823439 -1.306250 0.000000 0.000000 0.000000 5.865048 7.888582 3.254458 16.869431 11.568698 -1.485011 -10.714793 4.506843 -0.010031 0.000000 0.000000 0.000000 
0.007876 0.819670 -0.020723 -1.650931 2.371760 5.339866 25.944404 3.888498 -35.425073 -12.841252 4.087695 34.266713 10.990921 22.268407 9.426738 0.000000 0.000000 0.000000 -21.236493 -2.759734 -34.418588 12.022989 -4.700421 39.658992 -12.291357 -27.992511 6.903293 0.000000 0.000000 0.000000 -2.303789 -1.101111 36.849121 6.561863 -0.755085 -25.622384 1.037068 0.832687 22.954535 1.334948 1.893249 -38.820612 0.000000 0.000000 0.000000 -23.718318 -4.230163 0.385611 -23.689231 -23.160891 -0.229918 12.591508 -20.800018 -1.453004 0.000000 0.000000 0.000000 6.871005 13.774421 5.659360 19.571148 15.841298 -1.006904 -10.802071 9.395784 -0.359651 0.000000 0.000000 0.000000 
0.016102 0.801242 -0.026198 -1.711939 2.100236 5.387682 26.333911 4.459122 -38.226721 -13.876175 5.010701 38.598222 11.581483 23.373656 5.946594 0.000000 0.000000 0.000000 -22.327705 -3.337197 -36.988795 12.424819 -5.249215 43.384226 -12.082844 -27.925458 5.211459 0.000000 0.000000 0.000000 -2.817407 -1.015002 40.502935 7.016521 -0.761859 -26.788169 1.309109 1.918186 23.185256 1.596698 2.063307 -41.568155 0.000000 0.000000 0.000000 -24.881575 -8.855905 2.855582 -30.320150 -28.863497 1.548155 12.602692 -26.240092 -1.812464 0.000000 0.000000 0.000000 10.034929 18.805517 8.415989 21.882622 23.769031 0.067636 -13.521448 13.427823 -0.859917 0.000000 0.000000 0.000000 
0.026983 0.783733 -0.030182 -2.229316 0.427319 5.509825 27.958002 5.660308 -39.692256 -16.092293 6.803314 41.826358 12.521242 25.212551 2.219214 0.000000 0.000000 0.000000 -22.899222 -3.464865 -39.725139 12.789882 -5.428149 46.328610 -11.523538 -27.194522 3.660993 0.000000 0.000000 0.000000 -3.888564 -0.362940 42.880031 7.370139 -0.806480 -27.314021 3.486591 2.448619 23.445541 1.047640 2.417099 -45.891649 0.000000 0.000000 0.000000 -24.995538 -11.991240 4.916794 -37.452274 -34.642736 4.254112 11.683128 -29.500564 -1.694103 0.000000 0.000000 0.000000 11.165494 23.244046 10.605840 22.129021 32.920905 1.458607 -15.649917 16.296089 -1.378234 0.000000 0.000000 0.000000 
0.039039 0.765519 -0.031619 -2.250067 0.501853 5.734222 28.261421 6.105422 -41.769232 -17.585607 8.052743 44.838888 12.958963 26.682447 -2.805497 0.000000 0.000000 0.000000 -25.295547 -4.552406 -41.653390 14.610555 -6.852675 49.122547 -11.371247 -26.997794 2.970796 0.000000 0.000000 0.000000 -3.395812 -0.619082 44.831236 7.083443 -0.735585 -27.428591 3.950055 2.632722 22.011615 -0.394114 2.925588 -45.874666 0.000000 0.000000 0.000000 -25.168403 -16.003742 7.322440 -39.607324 -39.299166 6.476067 12.326852 -35.854340 -2.265594 0.000000 0.000000 0.000000 12.725741 27.023563 12.802953 20.496916 38.983840 2.073761 -16.931466 21.577536 -2.167178 0.000000 0.000000 0.000000 
0.050489 0.745330 -0.030368 -2.824030 0.340696 4.599108 28.739638 6.680892 -43.466457 -18.016531 9.186547 50.245442 12.980555 27.364259 -7.437214 0.000000 0.000000 0.000000 -26.542107 -5.161493 -42.644976 15.440698 -7.824038 52.917904 -11.019652 -26.373506 1.896323 0.000000 0.000000 0.000000 -3.127108 -0.768402 47.142762 6.451912 -0.538959 -28.445398 4.853465 3.371738 22.179551 -1.515347 3.390368 -46.603506 0.000000 0.000000 0.000000 -23.948645 -18.797422 8.724576 -40.920371 -44.856129 8.935357 14.720046 -37.558553 -3.197780 0.000000 0.000000 0.000000 12.345019 28.960304 13.713045 17.807507 43.971736 2.030790 -19.062224 24.811686 -2.984160 0.000000 0.000000 0.000000 
0.058927 0.724007 -0.027372 -3.142591 0.858446 3.703425 29.409788 7.079957 -44.942242 -19.035094 10.448195 54.529847 12.835014 27.954322 -12.705131 0.000000 0.000000 0.000000 -28.350337 -6.074936 -42.895768 16.692941 -9.234412 55.953999 -10.833870 -26.226664 -0.299934 0.000000 0.000000 0.000000 -3.232745 -0.885087 48.773983 7.432539 -0.678466 -29.121750 5.080912 4.796181 21.608699 -2.664654 3.966935 -45.049912 0.000000 0.000000 0.000000 -23.713966 -20.734089 9.290440 -40.181373 -47.616803 9.873681 17.657957 -39.793339 -4.604282 0.000000 0.000000 0.000000 12.032321 30.005923 14.402748 14.484747 46.682722 1.353925 -19.548340 25.162211 -3.140684 0.000000 0.000000 0.000000 
0.062513 0.702283 -0.024887 -3.562126 1.162505 3.143826 30.888776 8.026649 -47.166984 -20.287723 12.184501 59.298450 12.649752 27.989739 -15.338184 0.000000 0.000000 0.000000 -28.805451 -6.565861 -43.921784 16.519350 -9.808868 59.662630 -10.689701 -26.305650 -3.227129 0.000000 0.000000 0.000000 -3.032754 -1.097541 49.973378 7.475414 -0.627997 -29.779822 5.410136 5.581066 21.575705 -3.956351 4.556697 -43.571859 0.000000 0.000000 0.000000 -23.237130 -22.061460 9.736764 -37.270571 -50.599343 9.902323 20.047996 -40.467792 -5.672731 0.000000 0.000000 0.000000 11.738734 31.121415 14.991310 12.325747 48.453909 0.816253 -21.023401 22.707652 -3.071609 0.000000 0.000000 0.000000 
